<svg xmlns="http://www.w3.org/2000/svg" viewBox="0 0 200 200" width="200" height="200">
  <title>Pudumóvil</title>
  <g>
    <rect x="78" y="148" width="14" height="32" rx="7" fill="#9a5424"/>
    <rect x="108" y="148" width="14" height="32" rx="7" fill="#9a5424"/>
    <ellipse cx="100" cy="128" rx="34" ry="30" fill="#b8672e"/>
    <ellipse cx="100" cy="134" rx="20" ry="18" fill="#fff6e5"/><path d="M70 120 L62 140" stroke="#b8672e" stroke-width="13" stroke-linecap="round" fill="none"/><path d="M130 120 L138 140" stroke="#b8672e" stroke-width="13" stroke-linecap="round" fill="none"/>
    <path d="M74 112 Q100 122 126 112 L128 146 Q100 154 72 146 Z" fill="#ff7a1a"/>
    <rect x="72" y="124" width="56" height="6" fill="#c9d1d6"/>
    <rect x="72" y="136" width="56" height="5" fill="#c9d1d6"/>
  <g transform="rotate(0 100 80)">
    
    <ellipse cx="72" cy="62" rx="11" ry="16" fill="#7b421c" transform="rotate(-38 72 62)"/>
    <ellipse cx="128" cy="62" rx="11" ry="16" fill="#7b421c" transform="rotate(38 128 62)"/>
    <ellipse cx="100" cy="74" rx="30" ry="28" fill="#b8672e"/>
    
    <ellipse cx="100" cy="82" rx="14" ry="11" fill="#db965f"/>
    <ellipse cx="100" cy="77" rx="5" ry="4" fill="#1c2830"/>
    
    <circle cx="88" cy="66" r="4.5" fill="#1c2830"/>
    <circle cx="112" cy="66" r="4.5" fill="#1c2830"/>
    <circle cx="89.5" cy="64.5" r="1.6" fill="#ffffff"/>
    <circle cx="113.5" cy="64.5" r="1.6" fill="#ffffff"/>
    <path d="M94 88q6 5 12 0" fill="none" stroke="#1c2830" stroke-width="2.5" stroke-linecap="round"/>
  </g>
  </g>
</svg>
